<svg xmlns="http://www.w3.org/2000/svg" class="css-ze2te4 css-qd6ojx" viewBox="0 0 84.022 72"><path d="M10.946 25.817a.25.25 0 00-.102-.338l-5.348-2.872a.25.25 0 00-.236.438l5.349 2.873a.248.248 0 00.337-.101m1.143 1.868a.25.25 0 00-.102-.337L5.495 23.87a.248.248 0 10-.235.438l6.493 3.478a.252.252 0 00.336-.102M7.958 45.122a.619.619 0 00.26.837l8.493 4.47a.62.62 0 00.579-1.098l-8.495-4.47a.62.62 0 00-.837.26m0-3.102a.62.62 0 00.26.839l10.628 5.592a.622.622 0 00.578-1.098L8.795 41.76a.62.62 0 00-.837.26m0-3.103a.62.62 0 00.26.839l15.61 8.216a.62.62 0 10.577-1.099l-15.61-8.215a.62.62 0 00-.837.26m0-3.102a.62.62 0 00.26.837l12.805 6.74a.62.62 0 10.578-1.099L8.795 35.555a.62.62 0 00-.837.26m-2.799-9.31a.249.249 0 00.1.338l3.59 1.947a.25.25 0 00.237-.438l-3.59-1.947a.248.248 0 00-.337.1m0-1.266a.248.248 0 00.101.337l4.46 2.406a.25.25 0 00.118.03.249.249 0 00.118-.468l-4.46-2.406a.25.25 0 00-.337.101m52.118-7.955L45.19 23.646 18.55 9.626l12.086-6.363 26.64 14.021zm-40.37-6.793l26.639 14.021-12.909 6.794L3.998 17.284l12.909-6.793zM29.87 68.334L3.063 54.224v-35.7l26.808 14.11v35.7zm28.342-49.81v15.964h-13.56v13.94h13.56v5.797L31.405 68.334v-35.7l.969-.511 25.839-13.6zm12.022 9.147v6.817h-8.959V16.852a1.53 1.53 0 00-.819-1.356L31.351.177a1.526 1.526 0 00-1.427 0L.819 15.497A1.53 1.53 0 000 16.851v38.297c0 .568.315 1.09.818 1.355l29.106 15.32a1.526 1.526 0 001.427 0l29.106-15.32a1.53 1.53 0 00.82-1.355v-6.721h8.958v6.817l13.787-13.787-13.787-13.787z" xmlns="http://www.w3.org/2000/svg" fill="#fff"/></svg>