<svg xmlns="http://www.w3.org/2000/svg" viewBox="0 0 340 72" class="css-ata32y"><path d="M10.946 25.817a.25.25 0 00-.102-.338l-5.348-2.872a.25.25 0 00-.236.438l5.349 2.873a.248.248 0 00.337-.101m1.143 1.868a.25.25 0 00-.102-.337L5.495 23.87a.248.248 0 10-.235.438l6.493 3.478a.252.252 0 00.336-.102M7.958 45.122a.619.619 0 00.26.837l8.493 4.47a.62.62 0 00.579-1.098l-8.495-4.47a.62.62 0 00-.837.26m0-3.102a.62.62 0 00.26.839l10.628 5.592a.622.622 0 00.578-1.098L8.795 41.76a.62.62 0 00-.837.26m0-3.103a.62.62 0 00.26.839l15.61 8.216a.62.62 0 10.577-1.099l-15.61-8.215a.62.62 0 00-.837.26m0-3.102a.62.62 0 00.26.837l12.805 6.74a.62.62 0 10.578-1.099L8.795 35.555a.62.62 0 00-.837.26m-2.799-9.31a.249.249 0 00.1.338l3.59 1.947a.25.25 0 00.237-.438l-3.59-1.947a.248.248 0 00-.337.1m0-1.266a.248.248 0 00.101.337l4.46 2.406a.25.25 0 00.118.03.249.249 0 00.118-.468l-4.46-2.406a.25.25 0 00-.337.101m52.118-7.955L45.19 23.646 18.55 9.626l12.086-6.363 26.64 14.021zm-40.37-6.793l26.639 14.021-12.909 6.794L3.998 17.284l12.909-6.793zM29.87 68.334L3.063 54.224v-35.7l26.808 14.11v35.7zm28.342-49.81v15.964h-13.56v13.94h13.56v5.797L31.405 68.334v-35.7l.969-.511 25.839-13.6zm12.022 9.147v6.817h-8.959V16.852a1.53 1.53 0 00-.819-1.356L31.351.177a1.526 1.526 0 00-1.427 0L.819 15.497A1.53 1.53 0 000 16.851v38.297c0 .568.315 1.09.818 1.355l29.106 15.32a1.526 1.526 0 001.427 0l29.106-15.32a1.53 1.53 0 00.82-1.355v-6.721h8.958v6.817l13.787-13.787-13.787-13.787zM104 4h3v64h-3z" xmlns="http://www.w3.org/2000/svg" fill="#fff"/><path d="M132.717 26.598c-.26 2.14-.713 4.667-1.232 7.325 1.426-3.76 3.824-8.686 5.769-10.307a5.651 5.651 0 013.76-1.166c4.537.194 6.546 3.24 5.704 7.584 0 .194-.065.388-.065.583 1.296-2.917 2.917-5.834 4.407-7 1.038-.843 2.334-1.232 3.695-1.167 4.538.194 6.547 3.24 5.77 7.584-.779 4.083-3.112 12.899-1.492 16.658 1.102 2.399 4.408.13 6.742-7.843 0 0 2.592.583 2.398 1.426-1.62 6.028-3.825 9.27-6.936 10.5-3.5 1.427-7.908.195-9.528-3.435-2.723-5.898.453-13.352.972-19.51.13-.973 0-1.556-.583-.973-2.917 2.788-5.575 10.307-7.584 16.53-.39 1.944-.778 3.953-1.297 5.963-1.166 4.602-6.546 0-6.546-2.399 0-6.935 1.685-12.51 2.268-19.121.065-.973-.065-1.556-.648-.973-4.148 4.02-7.908 18.02-9.788 23.724v.26c0 1.166-6.935 1.296-6.482-5.316.454-6.546 2.14-15.491 2.658-21.844.13-2.074 8.62-1.426 8.038 2.917zm51.116-2.917c-.065-2.074 8.621-1.426 8.038 2.917-.584 4.667-4.019 15.751-2.074 20.094 1.102 2.399 4.407.13 6.74-7.843 0-.065 2.658.389 2.334 1.685-1.62 5.834-3.824 9.01-6.87 10.242-3.5 1.426-7.908.194-9.529-3.436-.324-.648-.519-1.49-.713-2.333-.843 1.75-1.815 3.24-2.917 4.408-.583.648-1.231 1.102-1.944 1.36-3.5 1.427-7.844.195-9.529-3.435-2.722-5.963.908-21.325 6.806-24.242l.584-.195c1.88-.648 5.898-.518 8.037 1.88.324.324.583.713.843 1.167.13-.908.194-1.62.194-2.269zM178.13 45.85c3.241-6.936 4.473-13.742 3.824-17.307-.648-3.695-3.176-2.463-4.472.453-2.398 5.121-4.537 13.742-2.722 17.696.842 2.01 2.074 1.297 3.37-.842zm37.894-3.241c.13 1.166.13 2.203-.065 3.176 1.88-1.297 4.019-3.76 4.732-6.871.064-.324 2.657.907 2.333 1.75-1.296 3.565-3.565 6.093-5.963 7.778-3.37 2.269-8.232 4.473-12.122 2.334-2.398-1.297-4.018-3.954-3.5-8.038.26-2.01 3.5-2.204 3.176-.778-1.62 6.742 3.306 8.492 3.695 4.667.583-5.639-5.38-12.51-3.5-19.575-1.361 3.824-3.565 9.593-4.991 13.612-1.037 2.852-2.788-.583-2.593-1.102 2.398-6.223 5.64-15.168 6.936-18.474 1.36-3.37 11.343 1.945 9.982 4.343-3.5 6.742 1.167 10.566 1.88 17.178zm24.151 0c.13 1.166.13 2.203-.064 3.176 1.88-1.297 4.018-3.76 4.731-6.871.065-.324 2.658.907 2.334 1.75-1.297 3.565-3.565 6.093-5.964 7.778-3.37 2.269-8.232 4.473-12.12 2.334-2.4-1.297-4.02-3.954-3.501-8.038.26-2.01 3.5-2.204 3.176-.778-1.62 6.742 3.306 8.492 3.695 4.667.583-5.639-5.38-12.51-3.5-19.575-1.362 3.824-3.565 9.593-4.992 13.612-1.037 2.852-2.787-.583-2.592-1.102 2.398-6.223 5.639-15.168 6.935-18.474 1.362-3.37 11.344 1.945 9.983 4.343-3.5 6.742 1.166 10.566 1.88 17.178zm22.661-18.928c-.065-2.074 8.621-1.426 8.038 2.917-.583 4.667-4.019 15.751-2.074 20.094 1.102 2.399 4.407.13 6.74-7.843 0-.065 2.659.389 2.334 1.685-1.62 5.834-3.824 9.01-6.87 10.242-3.5 1.426-7.908.194-9.529-3.436-.324-.648-.518-1.49-.713-2.333-.843 1.75-1.815 3.24-2.917 4.408-.583.648-1.231 1.102-1.944 1.36-3.5 1.427-7.844.195-9.529-3.435-2.722-5.963.908-21.325 6.806-24.242l.584-.195c1.88-.648 5.898-.518 8.037 1.88.324.324.584.713.843 1.167.13-.908.194-1.62.194-2.269zm-5.704 22.169c3.241-6.936 4.473-13.742 3.825-17.307-.649-3.695-3.177-2.463-4.473.453-2.398 5.121-4.537 13.742-2.722 17.696.842 2.01 2.074 1.297 3.37-.842zm29.402-19.252c-.259 2.14-.713 4.667-1.231 7.325 1.426-3.76 3.824-8.686 5.769-10.307a5.651 5.651 0 013.76-1.166c4.537.194 6.546 3.24 5.703 7.584 0 .194-.064.388-.064.583 1.296-2.917 2.916-5.834 4.407-7 1.037-.843 2.334-1.232 3.695-1.167 4.537.194 6.547 3.24 5.769 7.584-.778 4.083-3.111 12.899-1.491 16.658 1.102 2.399 4.408.13 6.741-7.843 0 0 2.593.583 2.399 1.426-1.62 6.028-3.825 9.27-6.936 10.5-3.5 1.427-7.908.195-9.529-3.435-2.722-5.898.454-13.352.973-19.51.13-.973 0-1.556-.584-.973-2.917 2.788-5.574 10.307-7.584 16.53-.388 1.944-.777 3.953-1.296 5.963-1.167 4.602-6.547 0-6.547-2.399 0-6.935 1.686-12.51 2.269-19.121.065-.973-.065-1.556-.648-.973-4.149 4.02-7.908 18.02-9.788 23.724v.26c0 1.166-6.936 1.296-6.482-5.316.454-6.546 2.14-15.491 2.658-21.844.13-2.074 8.62-1.426 8.037 2.917z" fill="#fff"/></svg>